<svg width="100%" height="100%" overflow="visible" style="display: block;" viewBox="0 0 174.281 88" fill="none" xmlns="http://www.w3.org/2000/svg">
<g id="20250124_134811 1 [Vectorized]">
<path id="Vector" d="M113.056 39.1633C113.02 37.6581 113.022 36.8107 113.898 35.4367C114.826 33.9317 117.023 33.152 118.658 32.8372C122.885 32.0234 130.5 32.4537 131.17 37.9796C131.212 38.3291 131.363 38.762 131.148 39.0672C130.701 39.3387 125.692 39.1706 124.877 39.1441C123.992 37.6076 122.881 37.5354 121.221 37.6366C120.604 37.6742 119.966 37.8402 119.622 38.3934C119.48 39.4289 121.473 39.3944 122.219 39.4959C125.134 39.893 128.917 39.6658 131.06 42.0677C131.276 42.3102 131.605 43.1501 131.74 43.4855C131.937 44.5078 131.92 45.7853 131.473 46.7444C131.071 47.9392 129.627 48.9762 128.542 49.51C128.843 50.6995 128.687 51.6732 128.727 52.8729C128.804 55.1049 128.592 57.545 128.666 59.7461C129.338 57.6963 129.95 56.1462 132.159 55.3346C136.087 53.9969 141.212 55.1119 142.673 59.6198C145.337 67.8285 140.179 75.2858 131.251 72.0379C129.349 71.3459 128.929 69.4544 128.331 67.7182C128.218 68.9242 128.303 71.116 128.318 72.3899C127.624 72.4781 126.681 72.4298 125.959 72.4273C124.682 72.4221 123.406 72.4299 122.13 72.4509C121.967 70.2332 122.094 66.6419 122.092 64.2888C122.048 59.7101 122.047 55.1311 122.086 50.5523C119.212 50.4085 115.693 49.7601 114.168 47.0191C113.524 45.8624 113.538 45.0994 113.518 43.8239C115.701 43.8717 117.894 43.8086 120.082 43.8244L120.374 45.1897C121.273 45.2899 122.177 45.3367 123.081 45.3297C123.728 45.3206 125.326 45.347 125.286 44.4917C125.179 44.2917 125.03 44.1268 124.801 44.0767C122.909 43.6638 120.73 43.6783 118.811 43.4152C117.964 43.2989 116.713 42.9811 115.967 42.644C114.242 41.8632 113.754 41.1216 113.099 39.4634C113.137 40.5097 113.179 41.5301 113.163 42.5778C112.692 43.0894 112.916 47.1495 113.174 47.8388C113.206 48.3075 113.116 49.6463 113.095 50.1768C111.214 50.372 108.889 50.1344 106.919 50.2642C106.753 48.8212 106.895 48.0215 106.797 46.6655C106.244 48.3672 105.155 49.4289 103.483 50.0228C100.512 51.0791 95.4464 50.7881 94.2433 47.2771C93.8428 46.134 93.9236 44.8773 94.4667 43.7951C95.8443 41.0383 100.192 41.2149 102.845 40.7791C104.347 40.5323 105.075 40.8538 106.703 40.3104C106.617 40.0407 106.315 39.0424 106.147 38.8717C105.322 38.0344 102.545 38.2079 101.583 38.7157C101.221 38.9066 101.077 40.0007 101.034 40.3733C100.323 40.4625 95.4284 40.4466 94.5785 40.368C94.4556 40.2842 94.3507 40.1919 94.3516 40.0165C94.3937 32.4844 104.867 30.9177 110.057 34.0206C112.105 35.245 112.588 37.0019 113.056 39.1633ZM128.836 62.1997C128.224 66.6403 129.792 66.7433 133.654 66.6638C136.289 66.6659 137.037 64.8454 136.465 62.5027C136.074 60.8954 133.284 60.4515 131.96 60.7918C130.615 60.9153 129.65 60.9736 128.836 62.1997ZM101.323 45.8686C102.847 45.8104 105.143 46.1991 106.128 44.972C106.294 44.7642 106.482 44.5785 106.494 44.3131L106.342 44.317C105.534 44.3687 101.613 44.6577 100.995 44.8561C100.652 45.2614 100.765 45.7623 101.323 45.8686Z" fill="#FFFFFF"/>
<path id="Vector_2" d="M132.105 27.2076C133.518 27.1446 137.349 27.1314 138.749 27.2158C138.615 29.7926 138.756 32.549 138.71 35.1417C138.693 36.1067 138.788 37.9309 138.593 38.7813C139.538 38.7543 140.555 38.7332 141.496 38.8007C142.742 37.0502 143.831 34.7023 145.211 33.092C145.54 32.7083 152.304 32.7333 152.821 32.9952L152.869 33.121C152.429 33.9494 150.877 36.0517 150.28 36.8569C149.279 38.207 147.986 40.0833 146.912 41.338C148.873 43.9257 151.206 47.3946 152.934 50.1512C151.158 50.3892 147.049 50.3273 145.228 50.1322C144.459 49.3692 142.24 45.7914 141.644 44.7178C140.605 44.7726 139.741 44.828 138.697 44.7474C138.707 45.5937 138.889 49.6646 138.495 50.1155C137.796 50.3675 133.139 50.2079 132.059 50.2147C132.061 48.9741 131.975 47.7501 131.984 46.511C132.043 45.9524 132.038 43.9852 132.009 43.4041C132.082 39.9014 131.952 36.207 132.024 32.6821C132.059 31.0034 131.932 28.8296 132.105 27.2076Z" fill="#FFFFFF"/>
<path id="Vector_3" d="M114.986 55.1162C117.214 55.1925 119.151 55.1459 121.355 55.0821L121.347 65.9165C121.347 67.8973 121.283 70.4433 121.426 72.3721C119.561 72.5247 117.251 72.3862 115.283 72.4762C115.207 71.2554 115.158 69.297 115.259 68.0854C115.265 67.7719 115.3 67.5649 115.121 67.3461C114.966 67.5462 114.999 67.7239 115 67.9872C114.546 69.6579 113.737 70.89 112.211 71.759C109.093 73.5351 103.787 73.1056 101.861 69.7466C101.454 68.9514 101.072 67.7562 101.033 66.8685C100.952 64.9448 100.896 62.893 100.951 60.9725C100.999 59.295 100.73 56.7128 101.035 55.1183C101.961 55.1584 107.092 55.0139 107.471 55.2997C107.719 55.9585 107.592 56.9453 107.583 57.6467C107.562 59.2391 107.283 64.6949 107.956 65.8626C108.125 66.1551 108.451 66.3524 108.751 66.487C110.092 67.0913 112.327 67.1094 113.69 66.5706C114.177 66.3779 114.462 66.0518 114.666 65.5743C115.244 64.219 114.755 57.2813 114.986 55.1162Z" fill="#FFFFFF"/>
<path id="Vector_4" d="M153.196 56.791C157.265 56.3408 160.927 59.2748 161.375 63.3432C161.823 67.4114 158.887 71.0722 154.819 71.5182C150.753 71.9638 147.096 69.0305 146.648 64.9652C146.2 60.8999 149.132 57.2408 153.196 56.791Z" fill="#FFFFFF"/>
<path id="Vector_5" d="M113.174 47.8387C112.916 47.1495 112.691 43.0894 113.163 42.5778C113.172 43.1617 113.177 43.7452 113.151 44.3286C113.1 45.499 113.217 46.6687 113.174 47.8387Z" fill="#FFFFFF"/>
<path id="Vector_6" d="M131.74 43.4855L132.009 43.4041C132.038 43.9852 132.043 45.9524 131.984 46.511C131.576 46.6465 132.04 46.6182 131.473 46.7444C131.92 45.7853 131.937 44.5078 131.74 43.4855Z" fill="#FFFFFF"/>
<path id="Vector_7" d="M115 67.9872C114.999 67.7239 114.966 67.5462 115.121 67.3461C115.3 67.5648 115.265 67.7718 115.259 68.0853L115 67.9872Z" fill="#FFFFFF"/>
<path id="Vector_8" d="M37.44 31.7539C29.5257 19.9819 40.2221 6.09833 53.3524 10.2836C60.2244 12.4742 63.9112 19.6376 62.4516 26.541C61.6589 30.1379 59.4679 33.2719 56.362 35.2517C54.3899 36.536 51.7994 37.446 49.4253 37.3307C49.1124 38.1342 48.7559 39.1234 48.3844 39.8857C49.44 39.8492 50.7677 39.8759 51.7404 39.762C59.0593 38.9018 65.6923 35.1341 70.2597 29.3626C70.5271 29.0248 71.6053 27.4716 71.8162 27.4031C72.9267 27.0427 76.3874 27.199 77.4966 27.2017L85.4638 27.2049L91.0362 27.1944C92.0837 27.1915 93.4029 27.1471 94.4118 27.2413C94.4092 29.1421 94.4737 31.3876 94.4023 33.2411C92.8005 33.2087 91.1977 33.2011 89.5959 33.2182C88.6084 33.2246 87.2816 33.2732 86.332 33.1871C86.4471 34.2055 86.3526 35.8794 86.3483 36.9864L86.344 44.354C86.3448 49.8226 86.6353 54.884 86.4411 60.4293C87.3675 58.2042 87.7508 56.4523 90.2352 55.433C93.5584 54.07 98.3314 54.843 99.7915 58.5057C100.609 60.5573 100.181 62.9974 100.278 65.159C100.341 67.5569 100.221 70.084 100.367 72.4701C98.2042 72.3809 95.9733 72.4253 93.8042 72.4556C93.604 69.2155 93.9709 65.685 93.5842 62.4872C93.3522 60.5663 90.5352 60.5779 89.1344 60.6931C87.9175 60.7592 87.2214 61.0711 86.5563 62.0719C86.387 65.4613 86.6121 69.0614 86.5287 72.448C84.594 72.4209 81.7339 72.3356 79.8433 72.4793C79.655 71.0065 79.7536 67.5668 79.7544 65.8983L79.7612 52.8219C79.7496 49.3066 79.3929 45.7499 79.5465 42.2117C79.6739 39.2767 79.3451 36.0682 79.566 33.1629C78.1773 33.272 74.5284 33.1059 73.5084 33.3209C73.3912 33.822 74.2712 36.1905 74.1348 36.4817C73.333 38.1923 68.5748 41.5078 67.233 42.3403C62.885 45.0173 58.0191 46.7428 52.9559 47.4029C51.0776 47.6459 49.1049 47.6527 47.2107 47.5979C46.8265 47.5868 45.6494 47.4098 45.3789 47.5837C45.1477 47.7323 42.1199 55.5393 41.643 56.4885C43.4258 57.0582 45.5442 57.8295 47.2296 58.6619C53.8684 62.0018 59.2937 67.3379 62.7431 73.9203C63.4269 75.2771 64.0668 76.6557 64.6618 78.0538C64.2051 78.722 63.6522 79.3881 63.1291 80.0081C61.6221 81.7942 60.2353 83.6804 58.5877 85.3407C58.4855 84.498 58.1822 83.5023 57.9464 82.677C56.3254 77.097 53.0071 72.1603 48.4522 68.5523C44.4385 65.4259 39.6539 63.4434 34.6051 62.8148C33.7737 62.7132 32.8761 62.7393 32.0363 62.6851C26.6255 69.9296 18.5621 74.8158 9.58332 76.2945C7.75117 76.5963 5.57559 76.8402 3.73494 76.849C3.26698 76.0649 0.392434 71.1298 7.6242e-07 70.7048V68.8126C3.49852 69.076 6.13415 69.1957 9.57834 68.4312C14.0586 67.4698 18.2261 65.3997 21.6991 62.4106C28.6899 56.4077 29.9703 49.4056 33.4883 41.3821C31.9457 41.4821 30.2088 41.543 28.6932 41.7557C21.8947 42.7096 15.7947 46.3115 11.3188 51.462C11.1519 51.654 11.1584 51.6371 10.9599 51.5579C10.5929 50.7275 10.0207 43.7628 9.76027 42.2588C10.348 41.5062 11.7102 40.5776 12.5085 40.0189C16.7437 37.055 22.0854 34.9497 27.2015 34.1994C30.4017 33.7301 33.2839 33.447 36.5152 34.0022C36.809 33.2163 37.1061 32.52 37.44 31.7539Z" fill="#FFFFFF"/>
</g>
</svg>
