<svg width="100%" height="100%" overflow="visible" style="display: block;" viewBox="0 0 13.5004 11.2506" fill="none" xmlns="http://www.w3.org/2000/svg">
<path id="Vector" d="M13.3355 6.02328L8.27297 11.0858C8.16742 11.1913 8.02427 11.2506 7.875 11.2506C7.72573 11.2506 7.58258 11.1913 7.47703 11.0858C7.37148 10.9802 7.31219 10.8371 7.31219 10.6878C7.31219 10.5385 7.37148 10.3954 7.47703 10.2898L11.5798 6.18781H0.5625C0.413316 6.18781 0.270242 6.12855 0.164753 6.02306C0.0592633 5.91757 0 5.7745 0 5.62531C0 5.47613 0.0592633 5.33305 0.164753 5.22757C0.270242 5.12208 0.413316 5.06281 0.5625 5.06281H11.5798L7.47703 0.960781C7.37148 0.855234 7.31219 0.71208 7.31219 0.562813C7.31219 0.413546 7.37148 0.270392 7.47703 0.164844C7.58258 0.0592961 7.72573 0 7.875 0C8.02427 0 8.16742 0.0592961 8.27297 0.164844L13.3355 5.22734C13.3878 5.27958 13.4293 5.34162 13.4576 5.40991C13.4859 5.4782 13.5004 5.55139 13.5004 5.62531C13.5004 5.69923 13.4859 5.77243 13.4576 5.84072C13.4293 5.909 13.3878 5.97104 13.3355 6.02328Z" fill="#6C3BFF"/>
</svg>
