<svg preserveAspectRatio="none" width="100%" height="100%" overflow="visible" style="display: block;" viewBox="0 0 14.625 12.9375" fill="none" xmlns="http://www.w3.org/2000/svg">
<path id="Vector" d="M12.9375 1.6875H10.9884L10.0301 0.250313C9.97873 0.173357 9.9092 0.110252 9.82764 0.0665899C9.74608 0.0229276 9.65501 5.55503e-05 9.5625 0H5.0625C4.96999 5.55503e-05 4.87892 0.0229276 4.79736 0.0665899C4.7158 0.110252 4.64627 0.173357 4.59492 0.250313L3.63586 1.6875H1.6875C1.23995 1.6875 0.810725 1.86529 0.494257 2.18176C0.17779 2.49822 0 2.92745 0 3.375V11.25C0 11.6976 0.17779 12.1268 0.494257 12.4432C0.810725 12.7597 1.23995 12.9375 1.6875 12.9375H12.9375C13.3851 12.9375 13.8143 12.7597 14.1307 12.4432C14.4472 12.1268 14.625 11.6976 14.625 11.25V3.375C14.625 2.92745 14.4472 2.49822 14.1307 2.18176C13.8143 1.86529 13.3851 1.6875 12.9375 1.6875ZM13.5 11.25C13.5 11.3992 13.4407 11.5423 13.3352 11.6477C13.2298 11.7532 13.0867 11.8125 12.9375 11.8125H1.6875C1.53832 11.8125 1.39524 11.7532 1.28975 11.6477C1.18426 11.5423 1.125 11.3992 1.125 11.25V3.375C1.125 3.22582 1.18426 3.08274 1.28975 2.97725C1.39524 2.87176 1.53832 2.8125 1.6875 2.8125H3.9375C4.03013 2.81256 4.12134 2.78974 4.20303 2.74608C4.28473 2.70241 4.35437 2.63924 4.40578 2.56219L5.36344 1.125H9.26086L10.2192 2.56219C10.2706 2.63924 10.3403 2.70241 10.422 2.74608C10.5037 2.78974 10.5949 2.81256 10.6875 2.8125H12.9375C13.0867 2.8125 13.2298 2.87176 13.3352 2.97725C13.4407 3.08274 13.5 3.22582 13.5 3.375V11.25ZM7.3125 3.9375C6.70061 3.9375 6.10247 4.11895 5.5937 4.45889C5.08494 4.79884 4.68841 5.28201 4.45425 5.84732C4.22009 6.41263 4.15882 7.03468 4.2782 7.63481C4.39757 8.23494 4.69222 8.78619 5.12489 9.21886C5.55756 9.65153 6.10881 9.94618 6.70894 10.0656C7.30907 10.1849 7.93112 10.1237 8.49643 9.8895C9.06174 9.65534 9.54491 9.25881 9.88486 8.75004C10.2248 8.24128 10.4062 7.64314 10.4062 7.03125C10.4053 6.21102 10.0791 5.42466 9.49908 4.84467C8.91909 4.26468 8.13273 3.93843 7.3125 3.9375ZM7.3125 9C6.92312 9 6.54248 8.88453 6.21872 8.66821C5.89496 8.45188 5.64262 8.1444 5.49361 7.78466C5.3446 7.42492 5.30561 7.02907 5.38158 6.64717C5.45754 6.26527 5.64505 5.91447 5.92038 5.63913C6.19572 5.3638 6.54652 5.17629 6.92842 5.10033C7.31032 5.02436 7.70617 5.06335 8.06591 5.21236C8.42565 5.36137 8.73313 5.61371 8.94946 5.93747C9.16578 6.26123 9.28125 6.64187 9.28125 7.03125C9.28125 7.55339 9.07383 8.05415 8.70462 8.42337C8.3354 8.79258 7.83464 9 7.3125 9Z" fill="white"/>
</svg>
