<svg width="100%" height="100%" overflow="visible" style="display: block;" viewBox="0 0 6.75075 12.3756" fill="none" xmlns="http://www.w3.org/2000/svg">
<path id="Vector" d="M6.58578 6.58578L0.960782 12.2108C0.90852 12.263 0.846476 12.3045 0.778192 12.3328C0.709908 12.3611 0.636722 12.3756 0.562813 12.3756C0.488903 12.3756 0.415717 12.3611 0.347434 12.3328C0.27915 12.3045 0.217106 12.263 0.164844 12.2108C0.112582 12.1585 0.0711253 12.0965 0.0428413 12.0282C0.0145573 11.9599 0 11.8867 0 11.8128C0 11.7389 0.0145573 11.6657 0.0428413 11.5974C0.0711253 11.5292 0.112582 11.4671 0.164844 11.4148L5.39258 6.18781L0.164844 0.960781C0.0592959 0.855234 -1.11213e-09 0.71208 0 0.562813C1.11213e-09 0.413546 0.0592959 0.270392 0.164844 0.164844C0.270392 0.0592961 0.413546 1.11213e-09 0.562813 0C0.71208 -1.11213e-09 0.855234 0.0592961 0.960782 0.164844L6.58578 5.78984C6.63808 5.84208 6.67957 5.90412 6.70788 5.97241C6.73619 6.0407 6.75075 6.11389 6.75075 6.18781C6.75075 6.26173 6.73619 6.33493 6.70788 6.40322C6.67957 6.4715 6.63808 6.53354 6.58578 6.58578Z" fill="#78788C"/>
</svg>
