<svg preserveAspectRatio="none" width="100%" height="100%" overflow="visible" style="display: block;" viewBox="0 0 17.7256 17.7273" fill="none" xmlns="http://www.w3.org/2000/svg">
<path id="Vector" d="M8.86557 2.11087e-07C7.33529 -0.000333717 5.83098 0.39553 4.49908 1.14906C3.16718 1.90259 2.05305 2.98811 1.26515 4.29997C0.477244 5.61183 0.0424019 7.10533 0.00294711 8.63511C-0.0365077 10.1649 0.320769 11.6788 1.04 13.0295L0.0726733 15.9315C-0.00745341 16.1718 -0.0190817 16.4296 0.0390919 16.6761C0.0972655 16.9226 0.222942 17.1481 0.402035 17.3272C0.581129 17.5063 0.806561 17.6319 1.05307 17.6901C1.29957 17.7483 1.55741 17.7367 1.79767 17.6565L4.69966 16.6892C5.88839 17.3215 7.20553 17.6746 8.55111 17.7218C9.89669 17.769 11.2353 17.5091 12.4655 16.9617C13.6956 16.4143 14.7848 15.5939 15.6505 14.5627C16.5162 13.5315 17.1356 12.3166 17.4617 11.0103C17.7878 9.70396 17.812 8.34051 17.5324 7.02344C17.2529 5.70637 16.677 4.47029 15.8484 3.40902C15.0199 2.34775 13.9604 1.48919 12.7505 0.898512C11.5406 0.307831 10.212 0.000552469 8.86557 2.11087e-07ZM8.86557 16.3636C7.54709 16.3645 6.25173 16.0173 5.11046 15.3571C5.0269 15.3086 4.93399 15.2785 4.8379 15.2686C4.74181 15.2588 4.64472 15.2695 4.55307 15.3L1.36557 16.3636L2.42836 13.1761C2.45899 13.0845 2.46982 12.9875 2.46012 12.8914C2.45042 12.7953 2.42042 12.7024 2.37211 12.6187C1.54538 11.1894 1.21345 9.5272 1.42781 7.88997C1.64218 6.25273 2.39085 4.732 3.55769 3.56369C4.72453 2.39537 6.24432 1.64478 7.88128 1.42834C9.51824 1.21191 11.1809 1.54174 12.6113 2.36666C14.0416 3.19159 15.1598 4.46549 15.7923 5.99075C16.4248 7.51602 16.5363 9.20738 16.1094 10.8025C15.6826 12.3975 14.7412 13.8072 13.4315 14.8127C12.1217 15.8182 10.5168 16.3634 8.86557 16.3636Z" fill="#3B82F6"/>
</svg>
