<svg preserveAspectRatio="none" width="100%" height="100%" overflow="visible" style="display: block;" viewBox="0 0 19.0268 19.0276" fill="none" xmlns="http://www.w3.org/2000/svg">
<path id="Vector" d="M18.6273 9.264L17.2636 7.90036C17.0323 7.66935 16.7258 7.52911 16.3998 7.50517C16.0738 7.48124 15.75 7.57521 15.4875 7.76996L11.2568 3.53928C11.4517 3.27685 11.5458 2.95315 11.522 2.62715C11.4982 2.30114 11.3581 1.99453 11.1273 1.76315L9.76362 0.39951C9.63699 0.272852 9.48665 0.172379 9.32119 0.10383C9.15572 0.0352819 8.97838 0 8.79927 0C8.62017 0 8.44283 0.0352819 8.27736 0.10383C8.1119 0.172379 7.96156 0.272852 7.83493 0.39951L2.38038 5.85406C2.25372 5.98068 2.15325 6.13103 2.0847 6.29649C2.01615 6.46195 1.98087 6.6393 1.98087 6.8184C1.98087 6.9975 2.01615 7.17485 2.0847 7.34032C2.15325 7.50578 2.25372 7.65612 2.38038 7.78275L3.74402 9.14638C3.97535 9.37704 4.2818 9.51699 4.60761 9.54077C4.93342 9.56454 5.25694 9.47056 5.5193 9.27593L6.13038 9.88701L0.558223 15.4592C0.18803 15.864 -0.0117312 16.3961 0.000533069 16.9446C0.0127974 17.493 0.236142 18.0156 0.624063 18.4036C1.01198 18.7915 1.53458 19.0148 2.08305 19.0271C2.63152 19.0394 3.16358 18.8396 3.56845 18.4694L9.13976 12.8972L9.75084 13.5075C9.55597 13.7699 9.46186 14.0936 9.48563 14.4196C9.50941 14.7456 9.6495 15.0522 9.88038 15.2836L11.244 16.6472C11.3706 16.7739 11.521 16.8744 11.6865 16.9429C11.8519 17.0115 12.0293 17.0467 12.2084 17.0467C12.3875 17.0467 12.5648 17.0115 12.7303 16.9429C12.8957 16.8744 13.0461 16.7739 13.1727 16.6472L18.6273 11.1927C18.7539 11.0661 18.8544 10.9157 18.9229 10.7503C18.9915 10.5848 19.0268 10.4074 19.0268 10.2283C19.0268 10.0492 18.9915 9.8719 18.9229 9.70643C18.8544 9.54097 18.7539 9.39063 18.6273 9.264ZM4.70794 8.18246L3.3443 6.81883L8.79885 1.36428L10.1625 2.72792L4.70794 8.18246ZM2.60453 17.5046C2.46081 17.6475 2.26641 17.7277 2.06376 17.7277C1.86112 17.7277 1.66671 17.6475 1.523 17.5046C1.38039 17.3609 1.30037 17.1667 1.30037 16.9643C1.30037 16.7618 1.38039 16.5676 1.523 16.4239L7.0943 10.8518L8.17584 11.9325L2.60453 17.5046ZM6.49771 8.32394L10.304 4.51769L14.5091 8.72281L10.7037 12.5291L6.49771 8.32394ZM12.2079 15.6825L10.8443 14.3188L11.1852 13.9779L15.9579 9.20519L16.2988 8.86428L17.6625 10.2279L12.2079 15.6825Z" fill="#6C3BFF"/>
</svg>
