<svg width="100%" height="100%" overflow="visible" style="display: block;" viewBox="0 0 21 15.75" fill="none" xmlns="http://www.w3.org/2000/svg">
<path id="Vector" d="M20.25 11.25H19.5V2.25C19.5 1.65326 19.2629 1.08097 18.841 0.65901C18.419 0.237053 17.8467 0 17.25 0H3.75C3.15326 0 2.58097 0.237053 2.15901 0.65901C1.73705 1.08097 1.5 1.65326 1.5 2.25V11.25H0.75C0.551088 11.25 0.360322 11.329 0.21967 11.4697C0.0790176 11.6103 0 11.8011 0 12V13.5C0 14.0967 0.237053 14.669 0.65901 15.091C1.08097 15.5129 1.65326 15.75 2.25 15.75H18.75C19.3467 15.75 19.919 15.5129 20.341 15.091C20.7629 14.669 21 14.0967 21 13.5V12C21 11.8011 20.921 11.6103 20.7803 11.4697C20.6397 11.329 20.4489 11.25 20.25 11.25ZM3 2.25C3 2.05109 3.07902 1.86032 3.21967 1.71967C3.36032 1.57902 3.55109 1.5 3.75 1.5H17.25C17.4489 1.5 17.6397 1.57902 17.7803 1.71967C17.921 1.86032 18 2.05109 18 2.25V11.25H3V2.25ZM19.5 13.5C19.5 13.6989 19.421 13.8897 19.2803 14.0303C19.1397 14.171 18.9489 14.25 18.75 14.25H2.25C2.05109 14.25 1.86032 14.171 1.71967 14.0303C1.57902 13.8897 1.5 13.6989 1.5 13.5V12.75H19.5V13.5ZM12.75 3.75C12.75 3.94891 12.671 4.13968 12.5303 4.28033C12.3897 4.42098 12.1989 4.5 12 4.5H9C8.80109 4.5 8.61032 4.42098 8.46967 4.28033C8.32902 4.13968 8.25 3.94891 8.25 3.75C8.25 3.55109 8.32902 3.36032 8.46967 3.21967C8.61032 3.07902 8.80109 3 9 3H12C12.1989 3 12.3897 3.07902 12.5303 3.21967C12.671 3.36032 12.75 3.55109 12.75 3.75Z" fill="#18A962"/>
</svg>
