<svg preserveAspectRatio="none" width="100%" height="100%" overflow="visible" style="display: block;" viewBox="0 0 15.0037 20.4477" fill="none" xmlns="http://www.w3.org/2000/svg">
<path id="Vector" d="M14.9861 9.38607C14.9603 9.27679 14.9079 9.17558 14.8336 9.09143C14.7592 9.00728 14.6652 8.94279 14.56 8.90369L9.65005 7.06193L10.8995 0.81221C10.9278 0.667 10.9081 0.516529 10.8433 0.383501C10.7786 0.250473 10.6724 0.142107 10.5406 0.0747563C10.4089 0.00740528 10.2589 -0.0152767 10.1131 0.0101332C9.96739 0.0355431 9.83387 0.107666 9.73272 0.215619L0.187262 10.4429C0.109735 10.5246 0.0536507 10.6242 0.0240204 10.7329C-0.00560991 10.8415 -0.00786371 10.9558 0.0174605 11.0656C0.0427847 11.1753 0.0948981 11.2771 0.169145 11.3617C0.243392 11.4464 0.337459 11.5114 0.442944 11.5508L5.35459 13.3926L4.10857 19.6355C4.08028 19.7807 4.09998 19.9312 4.16471 20.0642C4.22944 20.1972 4.33568 20.3056 4.4674 20.373C4.59912 20.4403 4.74917 20.463 4.89491 20.4376C5.04065 20.4122 5.17417 20.34 5.27533 20.2321L14.8208 10.0048C14.8969 9.92312 14.9518 9.82396 14.9806 9.71607C15.0095 9.60818 15.0113 9.49486 14.9861 9.38607ZM5.91624 17.5534L6.80857 13.0892C6.8405 12.9309 6.8152 12.7664 6.73716 12.6249C6.65912 12.4835 6.53341 12.3744 6.38243 12.317L1.87902 10.6253L9.09095 2.89857L8.19948 7.36278C8.16754 7.5211 8.19285 7.68563 8.27089 7.82704C8.34893 7.96844 8.47464 8.07756 8.62561 8.13494L13.1256 9.82244L5.91624 17.5534Z" fill="#D97706"/>
</svg>
