<svg preserveAspectRatio="none" width="100%" height="100%" overflow="visible" style="display: block;" viewBox="0 0 16.25 16.25" fill="none" xmlns="http://www.w3.org/2000/svg">
<path id="Vector" d="M8.125 0C6.51803 0 4.94714 0.476523 3.611 1.36931C2.27485 2.2621 1.23344 3.53105 0.618482 5.0157C0.00352043 6.50035 -0.157382 8.13401 0.156123 9.71011C0.469628 11.2862 1.24346 12.7339 2.37976 13.8702C3.51606 15.0065 4.9638 15.7804 6.53989 16.0939C8.11599 16.4074 9.74966 16.2465 11.2343 15.6315C12.719 15.0166 13.9879 13.9752 14.8807 12.639C15.7735 11.3029 16.25 9.73197 16.25 8.125C16.2477 5.97081 15.391 3.90551 13.8677 2.38227C12.3445 0.85903 10.2792 0.00227486 8.125 0ZM8.125 15C6.76526 15 5.43605 14.5968 4.30546 13.8414C3.17487 13.0859 2.29368 12.0122 1.77333 10.7559C1.25298 9.49971 1.11683 8.11737 1.3821 6.78375C1.64738 5.45013 2.30216 4.22513 3.26364 3.26364C4.22513 2.30215 5.45014 1.64737 6.78376 1.3821C8.11738 1.11683 9.49971 1.25298 10.756 1.77333C12.0122 2.29368 13.0859 3.17487 13.8414 4.30545C14.5968 5.43604 15 6.76525 15 8.125C14.9979 9.94773 14.2729 11.6952 12.9841 12.9841C11.6952 14.2729 9.94773 14.9979 8.125 15ZM12.5 8.125C12.5 8.99029 12.2434 9.83616 11.7627 10.5556C11.282 11.2751 10.5987 11.8358 9.79924 12.167C8.99982 12.4981 8.12015 12.5847 7.27148 12.4159C6.42282 12.2471 5.64327 11.8304 5.03141 11.2186C4.41956 10.6067 4.00288 9.82719 3.83407 8.97852C3.66526 8.12985 3.7519 7.25019 4.08303 6.45076C4.41416 5.65133 4.97492 4.96805 5.69438 4.48732C6.41385 4.00659 7.25971 3.75 8.125 3.75C9.28494 3.75124 10.397 4.21258 11.2172 5.03278C12.0374 5.85298 12.4988 6.96506 12.5 8.125Z" fill="#6C3BFF"/>
</svg>
