<svg width="100%" height="100%" overflow="visible" style="display: block;" viewBox="0 0 150.5 150.5" fill="none" xmlns="http://www.w3.org/2000/svg">
<path id="Vector" d="M141 58.3322C138.467 55.685 135.846 52.9572 134.859 50.5586C133.945 48.3616 133.891 44.72 133.837 41.1927C133.737 34.6352 133.629 27.2042 128.462 22.0375C123.296 16.8708 115.865 16.7633 109.307 16.6625C105.78 16.6087 102.138 16.555 99.9414 15.6412C97.5495 14.6536 94.815 12.0333 92.1678 9.50031C87.5319 5.04578 82.2644 0 75.25 0C68.2356 0 62.9748 5.04578 58.3322 9.50031C55.685 12.0333 52.9572 14.6536 50.5586 15.6412C48.375 16.555 44.72 16.6087 41.1927 16.6625C34.6352 16.7633 27.2042 16.8708 22.0375 22.0375C16.8708 27.2042 16.7969 34.6352 16.6625 41.1927C16.6087 44.72 16.555 48.3616 15.6412 50.5586C14.6536 52.9505 12.0333 55.685 9.50031 58.3322C5.04578 62.9681 0 68.2356 0 75.25C0 82.2644 5.04578 87.5252 9.50031 92.1678C12.0333 94.815 14.6536 97.5428 15.6412 99.9414C16.555 102.138 16.6087 105.78 16.6625 109.307C16.7633 115.865 16.8708 123.296 22.0375 128.462C27.2042 133.629 34.6352 133.737 41.1927 133.837C44.72 133.891 48.3616 133.945 50.5586 134.859C52.9505 135.846 55.685 138.467 58.3322 141C62.9681 145.454 68.2356 150.5 75.25 150.5C82.2644 150.5 87.5252 145.454 92.1678 141C94.815 138.467 97.5428 135.846 99.9414 134.859C102.138 133.945 105.78 133.891 109.307 133.837C115.865 133.737 123.296 133.629 128.462 128.462C133.629 123.296 133.737 115.865 133.837 109.307C133.891 105.78 133.945 102.138 134.859 99.9414C135.846 97.5495 138.467 94.815 141 92.1678C145.454 87.5319 150.5 82.2644 150.5 75.25C150.5 68.2356 145.454 62.9748 141 58.3322ZM105.928 62.9278L68.3028 100.553C67.8036 101.053 67.2108 101.449 66.5583 101.72C65.9058 101.99 65.2064 102.129 64.5 102.129C63.7936 102.129 63.0942 101.99 62.4417 101.72C61.7892 101.449 61.1964 101.053 60.6972 100.553L44.5722 84.4278C43.5636 83.4192 42.997 82.0513 42.997 80.625C42.997 79.1987 43.5636 77.8308 44.5722 76.8222C45.5808 75.8136 46.9487 75.247 48.375 75.247C49.8013 75.247 51.1692 75.8136 52.1778 76.8222L64.5 89.1511L98.3222 55.3222C98.8216 54.8228 99.4144 54.4267 100.067 54.1564C100.719 53.8861 101.419 53.747 102.125 53.747C102.831 53.747 103.531 53.8861 104.183 54.1564C104.836 54.4267 105.428 54.8228 105.928 55.3222C106.427 55.8216 106.823 56.4144 107.094 57.0669C107.364 57.7194 107.503 58.4188 107.503 59.125C107.503 59.8312 107.364 60.5306 107.094 61.1831C106.823 61.8356 106.427 62.4284 105.928 62.9278Z" fill="#18A962"/>
</svg>
