<svg preserveAspectRatio="none" width="100%" height="100%" overflow="visible" style="display: block;" viewBox="0 0 19.5006 16.5004" fill="none" xmlns="http://www.w3.org/2000/svg">
<path id="Vector" d="M19.2806 5.78104L14.7806 10.281C14.6399 10.4218 14.449 10.5008 14.25 10.5008C14.051 10.5008 13.8601 10.4218 13.7194 10.281C13.5786 10.1403 13.4996 9.94944 13.4996 9.75042C13.4996 9.55139 13.5786 9.36052 13.7194 9.21979L16.9397 6.00042H13.2188C11.3894 5.99991 9.6117 6.60746 8.1653 7.72752C6.71889 8.84758 5.68578 10.4166 5.22844 12.1879C5.17871 12.3806 5.05447 12.5457 4.88305 12.6468C4.71163 12.7479 4.50707 12.7767 4.31437 12.727C4.12168 12.6773 3.95663 12.553 3.85554 12.3816C3.75444 12.2102 3.72558 12.0056 3.77531 11.8129C4.31495 9.71904 5.53571 7.86412 7.24537 6.54025C8.95502 5.21639 11.0564 4.49878 13.2188 4.50042H16.9416L13.7194 1.28104C13.6497 1.21136 13.5944 1.12863 13.5567 1.03759C13.519 0.946545 13.4996 0.848963 13.4996 0.750417C13.4996 0.651871 13.519 0.554289 13.5567 0.463245C13.5944 0.3722 13.6497 0.289475 13.7194 0.219792C13.8601 0.0790615 14.051 0 14.25 0C14.3485 0 14.4461 0.0194101 14.5372 0.0571221C14.6282 0.0948341 14.7109 0.150109 14.7806 0.219792L19.2806 4.71979C19.3504 4.78945 19.4057 4.87216 19.4434 4.96321C19.4812 5.05426 19.5006 5.15186 19.5006 5.25042C19.5006 5.34898 19.4812 5.44657 19.4434 5.53762C19.4057 5.62867 19.3504 5.71139 19.2806 5.78104ZM15.75 15.0004H1.5V3.75042C1.5 3.5515 1.42098 3.36074 1.28033 3.22009C1.13968 3.07943 0.948912 3.00042 0.75 3.00042C0.551088 3.00042 0.360322 3.07943 0.21967 3.22009C0.0790176 3.36074 0 3.5515 0 3.75042V15.7504C0 15.9493 0.0790176 16.1401 0.21967 16.2807C0.360322 16.4214 0.551088 16.5004 0.75 16.5004H15.75C15.9489 16.5004 16.1397 16.4214 16.2803 16.2807C16.421 16.1401 16.5 15.9493 16.5 15.7504C16.5 15.5515 16.421 15.3607 16.2803 15.2201C16.1397 15.0794 15.9489 15.0004 15.75 15.0004Z" fill="#3D3D52"/>
</svg>
