<svg preserveAspectRatio="none" width="100%" height="100%" overflow="visible" style="display: block;" viewBox="0 0 13.5 14.0625" fill="none" xmlns="http://www.w3.org/2000/svg">
<path id="Vector" d="M12.375 0H1.125C0.826631 0 0.540483 0.118526 0.329505 0.329505C0.118526 0.540483 0 0.826631 0 1.125V5.0625C0 8.76938 1.79438 11.0159 3.29977 12.2477C4.92117 13.5738 6.53414 14.0245 6.60445 14.0428C6.70113 14.0691 6.80309 14.0691 6.89977 14.0428C6.97008 14.0245 8.58094 13.5738 10.2045 12.2477C11.7056 11.0159 13.5 8.76938 13.5 5.0625V1.125C13.5 0.826631 13.3815 0.540483 13.1705 0.329505C12.9595 0.118526 12.6734 0 12.375 0ZM12.375 5.0625C12.375 7.66898 11.4145 9.78469 9.52031 11.3498C8.69574 12.0289 7.75797 12.5573 6.75 12.9108C5.75522 12.5634 4.82903 12.0444 4.01344 11.3773C2.09672 9.8093 1.125 7.68516 1.125 5.0625V1.125H12.375V5.0625Z" fill="#18A962"/>
</svg>
