<svg width="100%" height="100%" overflow="visible" style="display: block;" viewBox="0 0 16.3154 16.3154" fill="none" xmlns="http://www.w3.org/2000/svg">
<path id="Vector" d="M12.7702 8.51203L9.14348 7.17187L7.80755 3.54234C7.72843 3.32742 7.5853 3.14193 7.39745 3.01091C7.20961 2.87989 6.9861 2.80964 6.75708 2.80964C6.52805 2.80964 6.30454 2.87989 6.1167 3.01091C5.92886 3.14193 5.78572 3.32742 5.70661 3.54234L4.36223 7.17187L0.732702 8.50781C0.517777 8.58692 0.332291 8.73006 0.20127 8.9179C0.0702496 9.10575 0 9.32926 0 9.55828C0 9.7873 0.0702496 10.0108 0.20127 10.1987C0.332291 10.3865 0.517777 10.5296 0.732702 10.6087L4.36223 11.9531L5.69817 15.5827C5.77728 15.7976 5.92042 15.9831 6.10826 16.1141C6.2961 16.2451 6.51962 16.3154 6.74864 16.3154C6.97766 16.3154 7.20117 16.2451 7.38902 16.1141C7.57686 15.9831 7.71999 15.7976 7.79911 15.5827L9.14348 11.9531L12.773 10.6172C12.9879 10.5381 13.1734 10.3949 13.3044 10.2071C13.4355 10.0193 13.5057 9.79574 13.5057 9.56672C13.5057 9.33769 13.4355 9.11418 13.3044 8.92634C13.1734 8.7385 12.9879 8.59536 12.773 8.51625L12.7702 8.51203ZM8.51067 10.9842C8.43432 11.0124 8.36498 11.0567 8.30744 11.1143C8.2499 11.1718 8.20553 11.2411 8.17739 11.3175L6.75286 15.177L5.33114 11.3203C5.30304 11.2432 5.2584 11.1731 5.20034 11.115C5.14227 11.057 5.0722 11.0123 4.99505 10.9842L1.13841 9.5625L4.99505 8.14078C5.0722 8.11269 5.14227 8.06804 5.20034 8.00998C5.2584 7.95191 5.30304 7.88184 5.33114 7.80469L6.75286 3.94805L8.17458 7.80469C8.20272 7.88104 8.24709 7.95038 8.30463 8.00792C8.36217 8.06546 8.43151 8.10983 8.50786 8.13797L12.3673 9.5625L8.51067 10.9842ZM9.00286 2.25C9.00286 2.10082 9.06212 1.95774 9.16761 1.85225C9.2731 1.74676 9.41617 1.6875 9.56536 1.6875H10.6904V0.5625C10.6904 0.413316 10.7496 0.270242 10.8551 0.164752C10.9606 0.0592632 11.1037 0 11.2529 0C11.402 0 11.5451 0.0592632 11.6506 0.164752C11.7561 0.270242 11.8154 0.413316 11.8154 0.5625V1.6875H12.9404C13.0895 1.6875 13.2326 1.74676 13.3381 1.85225C13.4436 1.95774 13.5029 2.10082 13.5029 2.25C13.5029 2.39918 13.4436 2.54226 13.3381 2.64775C13.2326 2.75324 13.0895 2.8125 12.9404 2.8125H11.8154V3.9375C11.8154 4.08668 11.7561 4.22976 11.6506 4.33525C11.5451 4.44074 11.402 4.5 11.2529 4.5C11.1037 4.5 10.9606 4.44074 10.8551 4.33525C10.7496 4.22976 10.6904 4.08668 10.6904 3.9375V2.8125H9.56536C9.41617 2.8125 9.2731 2.75324 9.16761 2.64775C9.06212 2.54226 9.00286 2.39918 9.00286 2.25ZM16.3154 5.625C16.3154 5.77418 16.2561 5.91726 16.1506 6.02275C16.0451 6.12824 15.902 6.1875 15.7529 6.1875H15.1904V6.75C15.1904 6.89918 15.1311 7.04226 15.0256 7.14775C14.9201 7.25324 14.777 7.3125 14.6279 7.3125C14.4787 7.3125 14.3356 7.25324 14.2301 7.14775C14.1246 7.04226 14.0654 6.89918 14.0654 6.75V6.1875H13.5029C13.3537 6.1875 13.2106 6.12824 13.1051 6.02275C12.9996 5.91726 12.9404 5.77418 12.9404 5.625C12.9404 5.47582 12.9996 5.33274 13.1051 5.22725C13.2106 5.12176 13.3537 5.0625 13.5029 5.0625H14.0654V4.5C14.0654 4.35082 14.1246 4.20774 14.2301 4.10225C14.3356 3.99676 14.4787 3.9375 14.6279 3.9375C14.777 3.9375 14.9201 3.99676 15.0256 4.10225C15.1311 4.20774 15.1904 4.35082 15.1904 4.5V5.0625H15.7529C15.902 5.0625 16.0451 5.12176 16.1506 5.22725C16.2561 5.33274 16.3154 5.47582 16.3154 5.625Z" fill="white"/>
</svg>
