<svg width="100%" height="100%" overflow="visible" style="display: block;" viewBox="0 0 51 51" fill="none" xmlns="http://www.w3.org/2000/svg">
<g id="Progress Indicator">
<path id="Ellipse 4" d="M51 25.5C51 39.5833 39.5833 51 25.5 51C11.4167 51 5.26709e-06 39.5833 5.26709e-06 25.5C5.26709e-06 11.4167 11.4167 0 25.5 0C39.5833 0 51 11.4167 51 25.5ZM7.17659 25.5C7.17659 35.6197 15.3803 43.8234 25.5 43.8234C35.6197 43.8234 43.8234 35.6197 43.8234 25.5C43.8234 15.3803 35.6197 7.17658 25.5 7.17658C15.3803 7.17658 7.17659 15.3803 7.17659 25.5Z" fill="black" fill-opacity="0.16"/>
<path id="Ellipse 3" d="M25.5 3.56881C25.5 1.59781 23.8945 -0.0256302 21.9428 0.249326C18.8868 0.679847 15.9243 1.66302 13.2033 3.16075C9.4365 5.23421 6.25513 8.22652 3.95505 11.8594C1.65498 15.4923 0.310897 19.6479 0.0477895 23.9396C-0.215318 28.2314 0.611092 32.52 2.45018 36.4067C4.28926 40.2933 7.08129 43.6518 10.5667 46.1699C14.052 48.688 18.1175 50.2838 22.3851 50.809C26.6528 51.3343 30.9839 50.7718 34.9758 49.174C37.8593 48.0199 40.4981 46.3526 42.7689 44.2626C44.2191 42.9278 43.9819 40.657 42.4579 39.4071V39.4071C40.9338 38.1572 38.7028 38.4131 37.1822 39.667C35.7263 40.8675 34.0885 41.841 32.3235 42.5475C29.4489 43.6981 26.3301 44.1031 23.257 43.7249C20.1839 43.3467 17.2564 42.1975 14.7466 40.3843C12.2368 38.571 10.2263 36.1526 8.90198 33.3538C7.57767 30.5551 6.98258 27.4669 7.17204 24.3764C7.3615 21.2859 8.32936 18.2936 9.98563 15.6775C11.6419 13.0615 13.9328 10.9067 16.6453 9.41366C18.3108 8.49685 20.1021 7.8478 21.9536 7.48335C23.8875 7.10267 25.5 5.53981 25.5 3.56881V3.56881Z" fill="white"/>
</g>
</svg>
