<svg preserveAspectRatio="none" width="100%" height="100%" overflow="visible" style="display: block;" viewBox="0 0 17.7273 17.7273" fill="none" xmlns="http://www.w3.org/2000/svg">
<path id="Vector" d="M8.86364 0C7.11058 0 5.39688 0.519843 3.93927 1.49379C2.48165 2.46774 1.34558 3.85205 0.674708 5.47167C0.00384047 7.09129 -0.171689 8.87347 0.170316 10.5928C0.512322 12.3122 1.3565 13.8916 2.5961 15.1312C3.8357 16.3708 5.41505 17.215 7.13443 17.557C8.85381 17.899 10.636 17.7234 12.2556 17.0526C13.8752 16.3817 15.2595 15.2456 16.2335 13.788C17.2074 12.3304 17.7273 10.6167 17.7273 8.86364C17.7248 6.51362 16.7902 4.26056 15.1284 2.59884C13.4667 0.937123 11.2137 0.00248166 8.86364 0ZM8.86364 16.3636C7.38028 16.3636 5.93023 15.9238 4.69686 15.0997C3.46349 14.2755 2.5022 13.1042 1.93454 11.7338C1.36689 10.3633 1.21836 8.85532 1.50775 7.40046C1.79714 5.9456 2.51145 4.60923 3.56034 3.56034C4.60923 2.51144 5.94561 1.79714 7.40046 1.50775C8.85532 1.21836 10.3633 1.36688 11.7338 1.93454C13.1042 2.5022 14.2756 3.46349 15.0997 4.69686C15.9238 5.93023 16.3636 7.38028 16.3636 8.86364C16.3614 10.8521 15.5705 12.7584 14.1644 14.1644C12.7584 15.5705 10.8521 16.3614 8.86364 16.3636ZM8.18182 9.54545V4.77273C8.18182 4.5919 8.25366 4.41847 8.38152 4.29061C8.50939 4.16274 8.68281 4.09091 8.86364 4.09091C9.04447 4.09091 9.21789 4.16274 9.34576 4.29061C9.47362 4.41847 9.54546 4.5919 9.54546 4.77273V9.54545C9.54546 9.72628 9.47362 9.89971 9.34576 10.0276C9.21789 10.1554 9.04447 10.2273 8.86364 10.2273C8.68281 10.2273 8.50939 10.1554 8.38152 10.0276C8.25366 9.89971 8.18182 9.72628 8.18182 9.54545ZM9.88637 12.6136C9.88637 12.8159 9.82638 13.0136 9.71401 13.1818C9.60163 13.35 9.4419 13.4811 9.25502 13.5585C9.06814 13.6359 8.8625 13.6562 8.66412 13.6167C8.46573 13.5772 8.28349 13.4798 8.14046 13.3368C7.99743 13.1938 7.90003 13.0115 7.86056 12.8132C7.8211 12.6148 7.84135 12.4091 7.91876 12.2223C7.99617 12.0354 8.12726 11.8756 8.29544 11.7633C8.46363 11.6509 8.66136 11.5909 8.86364 11.5909C9.13488 11.5909 9.39502 11.6987 9.58682 11.8905C9.77861 12.0823 9.88637 12.3424 9.88637 12.6136Z" fill="#F03535"/>
</svg>
